<svg width="400" height="400" viewBox="0 0 400 400" fill="none" xmlns="http://www.w3.org/2000/svg">
<path d="M164.686 82.6879C178.33 64.9795 195.692 51.9444 219.489 57.1617C286.551 71.8616 273.652 175.626 207.312 180.299C153.596 184.086 133.499 92.5186 176.863 79.6848" stroke="white" stroke-width="16" stroke-linecap="round" stroke-linejoin="round"/>
<path d="M154.383 209.91C158.214 236.859 161.876 260.069 165.369 279.538C168.862 299.007 171.651 320.033 173.736 342.618" stroke="white" stroke-width="16" stroke-linecap="round" stroke-linejoin="round"/>
<path d="M244.235 216.822C241.811 230.514 235.568 259.88 230.87 286.947C225.675 316.879 222.117 344 222.117 344" stroke="white" stroke-width="16" stroke-linecap="round" stroke-linejoin="round"/>
<path d="M244.235 210.219C230.059 210.219 178.928 203.527 164.844 205.312C160.186 205.893 155.521 206.486 150.864 207.067C148.861 207.321 146.844 207.678 144.83 207.816C137.124 208.355 74.168 225.283 71.3345 225.115C70.6641 225.072 70.0075 225.031 69.3398 224.977C68.0348 224.872 65.858 224.81 64.8454 224.428C62.7127 223.603 60.7925 222.959 59.1122 221.312C58.4125 220.631 60.9308 202.275 68.1742 172.505C74.8686 144.991 85.0504 120.92 87.1044 119.195C89.1322 117.504 103.116 106.233 103.985 106.233C105.467 106.233 106.937 106.544 108.433 106.765C110.662 107.104 116.396 111.668 117.378 112.885C119.425 115.441 117.985 118.799 114.324 124.188C110.662 129.577 102.428 129.577 99.487 132.006" stroke="white" stroke-width="16" stroke-linecap="round" stroke-linejoin="round"/>
<path d="M244.235 210.219C259.262 210.219 336.816 239.868 338.172 241.884C339.592 244.006 340.999 245.917 340.999 248.358C340.999 252.658 337.852 256.598 334.121 259.782C328.917 264.216 323.011 268.174 317.382 272.315C314.062 274.752 310.731 277.2 307.411 279.637C302.18 283.479 252.81 315.848 247.101 319.249C243.094 321.64 238.988 323.987 235.308 326.643C235.233 327.191 235.087 327.742 234.876 328.285C234.397 329.489 228.561 342.928 227.646 344" stroke="white" stroke-width="16" stroke-linecap="round" stroke-linejoin="round"/>
</svg>
